<svg width="256" height="256" viewBox="0 0 256 256" fill="none" xmlns="http://www.w3.org/2000/svg">
<g id="Detailed=True">
<g id="Watchface">
<g id="Watchface_2">
<g id="frame">
<path id="frame_2" d="M128 228.5C183.505 228.5 228.5 183.505 228.5 128C228.5 72.4954 183.505 27.5 128 27.5C72.4954 27.5 27.5 72.4954 27.5 128C27.5 183.505 72.4954 228.5 128 228.5ZM215.5 128C215.5 176.325 176.325 215.5 128 215.5C79.6751 215.5 40.5 176.325 40.5 128C40.5 79.6751 79.6751 40.5 128 40.5C176.325 40.5 215.5 79.6751 215.5 128Z" fill="white"  stroke="#D6D6D6"/>
</g>
<path id="center-cross" d="M128 40V216M216 128H40" stroke="black" stroke-opacity="0.05"/>
<g id="tertiary-tick-marks">
<path id="tick-marks" d="M143.629 39.3656L144.324 35.4263M151.294 41.0659L152.329 37.2021M158.782 43.4267L160.15 39.668M166.036 46.4308L167.727 42.8056M173 50.0558L175 46.5917M179.622 54.2746L181.917 50.998M185.851 59.0553L188.422 55.9911M191.64 64.3596L194.468 61.5312M196.944 70.1482L200.008 67.577M201.724 76.3772L205.001 74.0829M205.943 82.9989L209.407 80.9989M209.568 89.9629L213.193 88.2724M212.572 97.2167L216.331 95.8486M214.933 104.705L218.797 103.67M216.633 112.371L220.572 111.676M217.658 120.154L221.642 119.806M218 127.998H222M217.658 135.842L221.642 136.19M216.633 143.627L220.572 144.321M214.933 151.292L218.797 152.328M212.572 158.78L216.331 160.149M209.568 166.034L213.193 167.725M205.942 172.998L209.406 174.998M201.724 179.62L205 181.914M196.944 185.849L200.008 188.42M191.64 191.638L194.468 194.467M185.851 196.943L188.422 200.007M179.622 201.723L181.916 205M173 205.942L175 209.406M166.036 209.567L167.726 213.192M158.782 212.572L160.15 216.331M151.294 214.933L152.329 218.796M143.628 216.632L144.323 220.571M135.844 217.658L136.193 221.643M128 218.001V222.001M120.156 217.658L119.807 221.642M112.372 216.633L111.677 220.573M104.706 214.934L103.671 218.798M97.2183 212.573L95.8502 216.332M89.9645 209.568L88.274 213.193M83.0001 205.942L81.0001 209.406M76.3782 201.723L74.0839 205M70.1492 196.945L67.5781 200.009M64.3607 191.64L61.5322 194.469M59.0562 185.851L55.992 188.422M54.2764 179.622L50.9998 181.916M50.0578 173L46.5937 175M46.4324 166.036L42.8072 167.727M43.4278 158.782L39.6691 160.15M41.0668 151.294L37.2031 152.329M39.3675 143.629L35.4282 144.324M38.3426 135.845L34.3578 136.193M38 128.001H34M38.3424 120.157L34.3577 119.809M39.3673 112.372L35.428 111.678M41.0667 104.708L37.203 103.672M43.4277 97.2195L39.6689 95.8515M46.4323 89.9649L42.8071 88.2744M50.0577 83L46.5936 81M54.2763 76.3783L50.9997 74.084M59.056 70.1488L55.9918 67.5776M64.3605 64.3607L61.532 61.5322M70.1493 59.0569L67.5781 55.9927M76.3782 54.2766L74.0839 51M83.0001 50.0579L81.0001 46.5938M89.9645 46.4328L88.274 42.8076M97.2183 43.4278L95.8502 39.669M104.706 41.0663L103.671 37.2026M112.372 39.3679L111.677 35.4287M120.156 38.3422L119.807 34.3574M128 38V34M135.845 38.3404L136.193 34.3556" stroke="#8C8C8C"/>
</g>
<g id="secondary-tick-marks">
<path id="tick-marks_2" d="M218 128.001H226M191.64 191.641L197.296 197.297M128 218.001V226.001M64.3604 191.64L58.7035 197.297M38 128H30M64.3604 64.3605L58.7035 58.7036M128 38V30M191.64 64.3616L197.296 58.7047" stroke="#8C8C8C"/>
</g>
<g id="primary-tick-marks">
<path id="tick-marks_3" d="M128 38V28M128 228V218M218 128H228M28 128H38" stroke="#8C8C8C"/>
</g>
<g id="labels">
<g id="90&#194;&#176;">
<g id="LabelFrame">
<path id="north-arrow" fill-rule="evenodd" clip-rule="evenodd" d="M111.913 25.2366L128 2L144.087 25.2367C138.844 24.4225 133.471 24 128 24C122.528 24 117.156 24.4225 111.913 25.2366Z" fill="#333333"/>
<path id="N" d="M131.797 20H129.488L125.762 13.5195H125.709C125.783 14.6641 125.82 15.4805 125.82 15.9688V20H124.197V11.4336H126.488L130.209 17.8496H130.25C130.191 16.7363 130.162 15.9492 130.162 15.4883V11.4336H131.797V20Z" fill="white"/>
</g>
<g id="LabelFrame_2">
<path id="S" d="M131.33 242.621C131.33 243.395 131.051 244.004 130.492 244.449C129.938 244.895 129.164 245.117 128.172 245.117C127.258 245.117 126.449 244.945 125.746 244.602V242.914C126.324 243.172 126.812 243.354 127.211 243.459C127.613 243.564 127.98 243.617 128.312 243.617C128.711 243.617 129.016 243.541 129.227 243.389C129.441 243.236 129.549 243.01 129.549 242.709C129.549 242.541 129.502 242.393 129.408 242.264C129.314 242.131 129.176 242.004 128.992 241.883C128.812 241.762 128.443 241.568 127.885 241.303C127.361 241.057 126.969 240.82 126.707 240.594C126.445 240.367 126.236 240.104 126.08 239.803C125.924 239.502 125.846 239.15 125.846 238.748C125.846 237.99 126.102 237.395 126.613 236.961C127.129 236.527 127.84 236.311 128.746 236.311C129.191 236.311 129.615 236.363 130.018 236.469C130.424 236.574 130.848 236.723 131.289 236.914L130.703 238.326C130.246 238.139 129.867 238.008 129.566 237.934C129.27 237.859 128.977 237.822 128.688 237.822C128.344 237.822 128.08 237.902 127.896 238.062C127.713 238.223 127.621 238.432 127.621 238.689C127.621 238.85 127.658 238.99 127.732 239.111C127.807 239.229 127.924 239.344 128.084 239.457C128.248 239.566 128.633 239.766 129.238 240.055C130.039 240.438 130.588 240.822 130.885 241.209C131.182 241.592 131.33 242.062 131.33 242.621Z" fill="#1A1A1A"/>
</g>
<g id="LabelFrame_3">
<path id="E" d="M243.148 133H238.215V124.434H243.148V125.922H240.031V127.803H242.932V129.291H240.031V131.5H243.148V133Z" fill="#1A1A1A"/>
</g>
<g id="LabelFrame_4">
<path id="W" d="M19.6211 133H17.5527L16.3926 128.5C16.3496 128.34 16.2754 128.01 16.1699 127.51C16.0684 127.006 16.0098 126.668 15.9941 126.496C15.9707 126.707 15.9121 127.047 15.8184 127.516C15.7246 127.98 15.6523 128.312 15.6016 128.512L14.4473 133H12.3848L10.1992 124.434H11.9863L13.082 129.109C13.2734 129.973 13.4121 130.721 13.498 131.354C13.5215 131.131 13.5742 130.787 13.6562 130.322C13.7422 129.854 13.8223 129.49 13.8965 129.232L15.1445 124.434H16.8613L18.1094 129.232C18.1641 129.447 18.2324 129.775 18.3145 130.217C18.3965 130.658 18.459 131.037 18.502 131.354C18.541 131.049 18.6035 130.67 18.6895 130.217C18.7754 129.76 18.8535 129.391 18.9238 129.109L20.0137 124.434H21.8008L19.6211 133Z" fill="#1A1A1A"/>
</g>
</g>
<g id="45&#194;&#176;">
<g id="LabelFrame_5">
<path id="NE" d="M207.842 53.9385L206.705 53.9385L202.023 46.749L201.977 46.749C202.039 47.5928 202.07 48.3662 202.07 49.0693L202.07 53.9385L201.15 53.9385L201.15 45.3721L202.275 45.3721L206.945 52.5322L206.992 52.5322C206.984 52.4268 206.967 52.0889 206.939 51.5186C206.912 50.9443 206.902 50.5342 206.91 50.2881L206.91 45.3721L207.842 45.3721L207.842 53.9385ZM214.973 53.9385L210.197 53.9385L210.197 45.3721L214.973 45.3721L214.973 46.2568L211.193 46.2568L211.193 49.0166L214.744 49.0166L214.744 49.8955L211.193 49.8955L211.193 53.0479L214.973 53.0479L214.973 53.9385Z" fill="#1A1A1A"/>
</g>
<g id="LabelFrame_6">
<path id="SW" d="M46.0781 210.533C46.0781 211.287 45.8047 211.875 45.2578 212.296C44.7109 212.718 43.9687 212.929 43.0312 212.929C42.0156 212.929 41.2344 212.798 40.6875 212.537L40.6875 211.576C41.0391 211.724 41.4219 211.841 41.8359 211.927C42.25 212.013 42.6602 212.056 43.0664 212.056C43.7305 212.056 44.2305 211.931 44.5664 211.681C44.9023 211.427 45.0703 211.076 45.0703 210.626C45.0703 210.33 45.0098 210.087 44.8887 209.9C44.7715 209.708 44.5723 209.533 44.291 209.373C44.0137 209.212 43.5898 209.031 43.0195 208.828C42.2227 208.542 41.6523 208.205 41.3086 207.814C40.9687 207.423 40.7988 206.914 40.7988 206.285C40.7988 205.625 41.0469 205.099 41.543 204.708C42.0391 204.318 42.6953 204.123 43.5117 204.123C44.3633 204.123 45.1465 204.279 45.8613 204.591L45.5508 205.458C44.8437 205.162 44.1562 205.013 43.4883 205.013C42.9609 205.013 42.5488 205.126 42.252 205.353C41.9551 205.58 41.8066 205.894 41.8066 206.296C41.8066 206.593 41.8613 206.837 41.9707 207.029C42.0801 207.216 42.2637 207.39 42.5215 207.55C42.7832 207.707 43.1816 207.88 43.7168 208.072C44.6152 208.392 45.2324 208.736 45.5684 209.103C45.9082 209.47 46.0781 209.947 46.0781 210.533ZM55.3066 212.812L54.3223 212.812L52.5937 207.076C52.5117 206.822 52.4199 206.501 52.3184 206.115C52.2168 205.728 52.1641 205.496 52.1602 205.417C52.0742 205.933 51.9375 206.498 51.75 207.111L50.0742 212.812L49.0898 212.812L46.8105 204.246L47.8652 204.246L49.2187 209.537C49.4062 210.279 49.543 210.951 49.6289 211.552C49.7344 210.837 49.8906 210.138 50.0977 209.455L51.6328 204.246L52.6875 204.246L54.2988 209.501C54.4863 210.107 54.6445 210.791 54.7734 211.552C54.8477 210.998 54.9883 210.322 55.1953 209.525L56.543 204.246L57.5977 204.246L55.3066 212.812Z" fill="#1A1A1A"/>
</g>
<g id="LabelFrame_7">
<path id="SE" d="M207.215 210.533C207.215 211.287 206.941 211.875 206.395 212.296C205.848 212.718 205.105 212.929 204.168 212.929C203.152 212.929 202.371 212.798 201.824 212.537L201.824 211.576C202.176 211.724 202.559 211.841 202.973 211.927C203.387 212.013 203.797 212.056 204.203 212.056C204.867 212.056 205.367 211.931 205.703 211.681C206.039 211.427 206.207 211.076 206.207 210.626C206.207 210.33 206.146 210.087 206.025 209.9C205.908 209.708 205.709 209.533 205.428 209.373C205.15 209.212 204.727 209.031 204.156 208.828C203.359 208.542 202.789 208.205 202.445 207.814C202.105 207.423 201.936 206.914 201.936 206.285C201.936 205.625 202.184 205.099 202.68 204.708C203.176 204.318 203.832 204.123 204.648 204.123C205.5 204.123 206.283 204.279 206.998 204.591L206.688 205.458C205.98 205.162 205.293 205.013 204.625 205.013C204.098 205.013 203.686 205.126 203.389 205.353C203.092 205.58 202.943 205.894 202.943 206.296C202.943 206.593 202.998 206.837 203.107 207.029C203.217 207.216 203.4 207.39 203.658 207.55C203.92 207.707 204.318 207.88 204.854 208.072C205.752 208.392 206.369 208.736 206.705 209.103C207.045 209.47 207.215 209.947 207.215 210.533ZM213.742 212.812L208.967 212.812L208.967 204.246L213.742 204.246L213.742 205.13L209.963 205.13L209.963 207.89L213.514 207.89L213.514 208.769L209.963 208.769L209.963 211.921L213.742 211.921L213.742 212.812Z" fill="#1A1A1A"/>
</g>
<g id="LabelFrame_8">
<path id="NW" d="M47.2051 53.9385L46.0684 53.9385L41.3867 46.749L41.3398 46.749C41.4023 47.5928 41.4336 48.3662 41.4336 49.0693L41.4336 53.9385L40.5137 53.9385L40.5137 45.3721L41.6387 45.3721L46.3086 52.5322L46.3555 52.5322C46.3477 52.4268 46.3301 52.0889 46.3027 51.5186C46.2754 50.9443 46.2656 50.5342 46.2734 50.2881L46.2734 45.3721L47.2051 45.3721L47.2051 53.9385ZM57.0371 53.9385L56.0527 53.9385L54.3242 48.2021C54.2422 47.9482 54.1504 47.6279 54.0488 47.2412C53.9473 46.8545 53.8945 46.6221 53.8906 46.5439C53.8047 47.0596 53.668 47.624 53.4805 48.2373L51.8047 53.9385L50.8203 53.9385L48.541 45.3721L49.5957 45.3721L50.9492 50.6631C51.1367 51.4053 51.2734 52.0771 51.3594 52.6787C51.4648 51.9639 51.6211 51.2646 51.8281 50.5811L53.3633 45.3721L54.418 45.3721L56.0293 50.6279C56.2168 51.2334 56.375 51.917 56.5039 52.6787C56.5781 52.124 56.7187 51.4482 56.9258 50.6514L58.2734 45.3721L59.3281 45.3721L57.0371 53.9385Z" fill="#1A1A1A"/>
</g>
</g>
</g>
</g>
</g>
<g id="Setpoint">
<g id="Arrow">
<path id="Shape" d="M215.854 79.1645C216.225 78.429 217.277 78.4333 217.643 79.1718L221.191 86.3418C221.557 87.0803 220.922 87.9192 220.112 87.7684L212.247 86.3053L215.854 79.1645Z" fill="#305792"/>
</g>
</g>
<g id="HDG">
<g id="HDG_2">
<!--<mask id="path-16-outside-1_24708_265145" maskUnits="userSpaceOnUse" x="81.5804" y="41.231" width="92.9039" height="172.473" fill="black">-->
<!--&lt;!&ndash;<rect fill="white" x="81.5804" y="41.231" width="92.9039" height="172.473"/>&ndash;&gt;-->
<!--<path fill-rule="evenodd" clip-rule="evenodd" d="M154.781 56.6538L163.386 48.5219L162.816 72.1945C162.794 73.0715 161.735 73.4982 161.112 72.8805L155.925 67.738L130.489 124.868C131.885 125.975 132.412 127.925 131.654 129.627C130.824 131.491 128.745 132.407 126.842 131.83L92.6638 208.596L91.7503 208.189L125.929 131.423C124.226 130.396 123.516 128.237 124.346 126.373C125.104 124.671 126.905 123.758 128.662 124.055L154.098 66.9245L146.806 66.511C145.93 66.4613 145.538 65.3883 146.175 64.7858L154.781 56.6538Z"/>-->
<!--</mask>-->
<path fill-rule="evenodd" clip-rule="evenodd" d="M154.781 56.6538L163.386 48.5219L162.816 72.1945C162.794 73.0715 161.735 73.4982 161.112 72.8805L155.925 67.738L130.489 124.868C131.885 125.975 132.412 127.925 131.654 129.627C130.824 131.491 128.745 132.407 126.842 131.83L92.6638 208.596L91.7503 208.189L125.929 131.423C124.226 130.396 123.516 128.237 124.346 126.373C125.104 124.671 126.905 123.758 128.662 124.055L154.098 66.9245L146.806 66.511C145.93 66.4613 145.538 65.3883 146.175 64.7858L154.781 56.6538Z" fill="#166CE4"/>
<!--<path d="M163.386 48.5219L164.386 48.5459L164.443 46.1466L162.699 47.795L163.386 48.5219ZM154.781 56.6538L155.468 57.3806L154.781 56.6538ZM162.816 72.1945L163.815 72.2186L163.815 72.2186L162.816 72.1945ZM161.112 72.8805L160.408 73.5907L161.112 72.8805ZM155.925 67.738L156.629 67.0279L155.601 66.0082L155.011 67.3313L155.925 67.738ZM130.489 124.868L129.576 124.461L129.26 125.169L129.867 125.651L130.489 124.868ZM126.842 131.83L127.133 130.873L126.288 130.616L125.929 131.423L126.842 131.83ZM92.6638 208.596L92.2571 209.509L93.1706 209.916L93.5773 209.002L92.6638 208.596ZM91.7503 208.189L90.8367 207.782L90.43 208.696L91.3435 209.103L91.7503 208.189ZM125.929 131.423L126.842 131.83L127.201 131.023L126.445 130.567L125.929 131.423ZM128.662 124.055L128.496 125.041L129.26 125.169L129.576 124.461L128.662 124.055ZM154.098 66.9245L155.011 67.3313L155.601 66.0082L154.155 65.9261L154.098 66.9245ZM146.806 66.511L146.749 67.5094L146.749 67.5094L146.806 66.511ZM146.175 64.7858L146.862 65.5126L146.862 65.5126L146.175 64.7858ZM162.699 47.795L154.094 55.927L155.468 57.3806L164.073 49.2487L162.699 47.795ZM163.815 72.2186L164.386 48.5459L162.386 48.4978L161.816 72.1704L163.815 72.2186ZM160.408 73.5907C161.654 74.826 163.773 73.9726 163.815 72.2186L161.816 72.1704L161.816 72.1704L160.408 73.5907ZM155.221 68.4482L160.408 73.5907L161.816 72.1704L156.629 67.0279L155.221 68.4482ZM131.403 125.275L156.839 68.1448L155.011 67.3313L129.576 124.461L131.403 125.275ZM132.568 130.034C133.516 127.904 132.855 125.469 131.111 124.085L129.867 125.651C130.914 126.482 131.308 127.945 130.74 129.221L132.568 130.034ZM126.552 132.786C128.931 133.509 131.53 132.364 132.568 130.034L130.74 129.221C130.119 130.617 128.559 131.306 127.133 130.873L126.552 132.786ZM93.5773 209.002L127.756 132.236L125.929 131.423L91.7503 208.189L93.5773 209.002ZM91.3435 209.103L92.2571 209.509L93.0705 207.682L92.157 207.275L91.3435 209.103ZM125.015 131.016L90.8367 207.782L92.6638 208.596L126.842 131.83L125.015 131.016ZM123.432 125.967C122.395 128.297 123.283 130.994 125.412 132.279L126.445 130.567C125.169 129.797 124.637 128.177 125.259 126.78L123.432 125.967ZM128.828 123.068C126.633 122.698 124.38 123.837 123.432 125.967L125.259 126.78C125.827 125.504 127.178 124.819 128.496 125.041L128.828 123.068ZM153.184 66.5178L127.748 123.648L129.576 124.461L155.011 67.3313L153.184 66.5178ZM146.749 67.5094L154.041 67.9229L154.155 65.9261L146.862 65.5126L146.749 67.5094ZM145.489 64.059C144.213 65.2641 144.997 67.41 146.749 67.5094L146.862 65.5126L146.862 65.5126L145.489 64.059ZM154.094 55.927L145.489 64.059L146.862 65.5126L155.468 57.3806L154.094 55.927Z" fill="#F7F7F7" mask="url(#path-16-outside-1_24708_265145)"/>-->
</g>
</g>
<g id="COG">
<g id="COG_2">
<!--<mask id="path-18-outside-2_24708_265145" maskUnits="userSpaceOnUse" x="155.788" y="50.0068" width="59.2053" height="59.2053" fill="black">-->
<!--&lt;!&ndash;<rect fill="white" x="155.788" y="50.0068" width="59.2053" height="59.2053"/>&ndash;&gt;-->
<!--<path fill-rule="evenodd" clip-rule="evenodd" d="M180.494 83.3299L182.783 89.7444L190.297 74.9881L174.528 80.0436L180.494 83.3299ZM194.257 71.6181L183.513 92.7197C183.115 93.5015 181.975 93.4284 181.68 92.6021L178.865 84.716L171.531 80.6757C170.762 80.2524 170.873 79.1154 171.708 78.8476L194.257 71.6181Z"/>-->
<!--</mask>-->
<path fill-rule="evenodd" clip-rule="evenodd" d="M180.494 83.3299L182.783 89.7444L190.297 74.9881L174.528 80.0436L180.494 83.3299ZM194.257 71.6181L183.513 92.7197C183.115 93.5015 181.975 93.4284 181.68 92.6021L178.865 84.716L171.531 80.6757C170.762 80.2524 170.873 79.1154 171.708 78.8476L194.257 71.6181Z" fill="#166CE4"/>
<!--<path d="M180.494 83.3299L181.436 82.9937L181.308 82.6368L180.976 82.454L180.494 83.3299ZM182.783 89.7444L181.841 90.0805L182.621 92.266L183.674 90.1981L182.783 89.7444ZM190.297 74.9881L191.188 75.4418L192.277 73.3031L189.991 74.0358L190.297 74.9881ZM174.528 80.0436L174.223 79.0913L172.013 79.7998L174.046 80.9195L174.528 80.0436ZM194.257 71.6181L195.148 72.0718L196.237 69.9331L193.952 70.6659L194.257 71.6181ZM183.513 92.7197L184.404 93.1735L183.513 92.7197ZM181.68 92.6021L182.621 92.266L182.621 92.266L181.68 92.6021ZM178.865 84.716L179.807 84.3798L179.679 84.0229L179.347 83.8401L178.865 84.716ZM171.531 80.6757L171.048 81.5516L171.048 81.5516L171.531 80.6757ZM171.708 78.8476L171.403 77.8953L171.708 78.8476ZM189.406 74.5343L181.892 89.2906L183.674 90.1981L191.188 75.4418L189.406 74.5343ZM174.834 80.9959L190.602 75.9403L189.991 74.0358L174.223 79.0913L174.834 80.9959ZM180.738 92.9383C181.328 94.5908 183.608 94.737 184.404 93.1735L182.621 92.266L180.738 92.9383ZM177.923 85.0521L180.738 92.9383L182.621 92.266L179.807 84.3798L177.923 85.0521ZM171.048 81.5516L178.382 85.5918L179.347 83.8401L172.013 79.7998L171.048 81.5516ZM171.403 77.8953C169.732 78.431 169.511 80.705 171.048 81.5516L172.013 79.7998L172.013 79.7998L171.403 77.8953ZM183.725 89.4082L181.436 82.9937L179.552 83.666L181.841 90.0805L183.725 89.4082ZM180.976 82.454L175.011 79.1677L174.046 80.9195L180.011 84.2058L180.976 82.454ZM193.952 70.6659L171.403 77.8953L172.013 79.7998L194.562 72.5704L193.952 70.6659ZM184.404 93.1735L195.148 72.0718L193.366 71.1644L182.621 92.266L184.404 93.1735Z" fill="#F7F7F7" mask="url(#path-18-outside-2_24708_265145)"/>-->
</g>
</g>
</g>
</svg>
